# xmcd
#
# Track frame offsets: 
#        150
#        13174
#        22342
#        32663
#        41941
#        59776
#        68091
#        84752
#        95431
#        107111
#        116531
#        133165
#        142000
#        153436
#        164338
#        174684
#        184801
#        196509
#        209108
#        218538
#        234323
#        248934
#        256197
#        264752
#        275667
#        286068
#        292368
#        303312
#        313606
#        320672
#        328290
#        341729
#
# Disc length: 4694 seconds
#
# Revision: 0
# Processed by: cddbd v1.5.2PL0 Copyright (c) Steve Scherf et al.
# Submitted via: ExactAudioCopy v0.99pb5
#
DISCID=f1125420
DTITLE=Eddie Collins - ASAP Bluegrass Mandolin [CD2]
DYEAR=2009
DGENRE=Bluegrass
TTITLE0=Annoying Banjos
TTITLE1=Boil 'Em Cabbage Down
TTITLE2=Old Joe Clark
TTITLE3=Mando Boogie
TTITLE4=Amazing Grace
TTITLE5=Billy in the Lowground
TTITLE6=Circle Be Unbroken
TTITLE7=Golden Wings
TTITLE8=Banks of the Ohio
TTITLE9=Dark Hollow
TTITLE10=Bury Me Beneath the Willow
TTITLE11=Long Journey Home
TTITLE12=Blackberry Blossom
TTITLE13=Temperance Reel
TTITLE14=Sailor's Hornpipe
TTITLE15=Turkey in the Straw
TTITLE16=Wayfaring Stranger
TTITLE17=Salty Dog Blues
TTITLE18=Nine Pound Hammer
TTITLE19=New River Train
TTITLE20=Worried Man Blues
TTITLE21=Eighth of January
TTITLE22=Flopeared Mule
TTITLE23=Forked Deer
TTITLE24=Ragtime Annie
TTITLE25=Angeline the Baker
TTITLE26=Whiskey Before Breakfast
TTITLE27=Devil's Dream
TTITLE28=Cripple Creek
TTITLE29=Sally Goodin'
TTITLE30=Billy Cheatham
TTITLE31=Red Haired Boy
EXTD=
EXTT0=
EXTT1=
EXTT2=
EXTT3=
EXTT4=
EXTT5=
EXTT6=
EXTT7=
EXTT8=
EXTT9=
EXTT10=
EXTT11=
EXTT12=
EXTT13=
EXTT14=
EXTT15=
EXTT16=
EXTT17=
EXTT18=
EXTT19=
EXTT20=
EXTT21=
EXTT22=
EXTT23=
EXTT24=
EXTT25=
EXTT26=
EXTT27=
EXTT28=
EXTT29=
EXTT30=
EXTT31=
PLAYORDER=
